<?xml version="1.0" encoding="UTF-8" standalone="no"?>
<svg
   width="500"
   height="500"
   version="1.1"
   id="svg698"
   sodipodi:docname="bobturk.svg"
   inkscape:version="1.2.2 (b0a8486541, 2022-12-01)"
   inkscape:export-filename="../large/bobturk.png"
   inkscape:export-xdpi="96"
   inkscape:export-ydpi="96"
   xmlns:inkscape="http://www.inkscape.org/namespaces/inkscape"
   xmlns:sodipodi="http://sodipodi.sourceforge.net/DTD/sodipodi-0.dtd"
   xmlns="http://www.w3.org/2000/svg"
   xmlns:svg="http://www.w3.org/2000/svg">
  <defs
     id="defs702" />
  <sodipodi:namedview
     id="namedview700"
     pagecolor="#ffffff"
     bordercolor="#000000"
     borderopacity="0.25"
     inkscape:showpageshadow="2"
     inkscape:pageopacity="0.0"
     inkscape:pagecheckerboard="0"
     inkscape:deskcolor="#d1d1d1"
     showgrid="false"
     showguides="true"
     inkscape:zoom="2.8284271"
     inkscape:cx="257.03332"
     inkscape:cy="295.39386"
     inkscape:window-width="2560"
     inkscape:window-height="1366"
     inkscape:window-x="0"
     inkscape:window-y="0"
     inkscape:window-maximized="1"
     inkscape:current-layer="svg698" />
  <path
     style="fill:#ff6825;fill-opacity:1;stroke-width:1.63821;stroke-linecap:round;stroke-linejoin:round"
     d="M 164.22971,360.19393 C 78.783102,299.86147 29.938686,236.39867 28.678936,211.21319 27.419196,186.02774 48.187811,178.11986 57.5676,180.06411 c 9.379793,1.94431 60.59394,31.12889 86.71531,67.13809 26.12136,36.00922 44.76148,89.47248 44.76148,89.47248 z"
     id="path453" />
  <path
     style="fill:#ff6825;fill-opacity:1;stroke-width:1.94051;stroke-linecap:round;stroke-linejoin:round"
     d="m 260.38842,325.20261 c 3.66672,-123.84664 34.37285,-213.59964 58.41727,-231.322132 24.0444,-17.722464 45.44149,-2.389149 49.65877,8.144762 4.21727,10.53393 8.90867,80.19899 -9.55664,129.55219 -18.4653,49.35321 -59.06001,102.73929 -59.06001,102.73929 z"
     id="path453-7" />
  <path
     style="fill:#b13d0a;fill-opacity:1;stroke-width:1.94051;stroke-linecap:round;stroke-linejoin:round"
     d="m 264.99582,323.34023 c 27.29068,-120.85798 19.90343,-215.43016 1.03001,-238.582143 -18.8734,-23.15197 -43.41488,-13.630314 -50.12258,-4.478518 -6.70771,9.151823 -28.60019,75.453771 -23.0072,127.850581 5.59299,52.3968 31.61384,114.21037 31.61384,114.21037 z"
     id="path453-3" />
  <path
     style="fill:#b13d0a;fill-opacity:1;stroke-width:1.53465;stroke-linecap:round;stroke-linejoin:round"
     d="m 322.69088,352.5795 c 77.7788,-59.59884 121.18093,-120.78997 121.43952,-144.41142 0.25862,-23.62143 -19.47134,-30.2646 -28.18042,-28.10178 -8.70911,2.16285 -55.58244,31.35373 -78.71766,66.01575 -23.1352,34.662 -38.62945,85.38877 -38.62945,85.38877 z"
     id="path453-3-5" />
  <path
     style="fill:#ffbf48;fill-opacity:1;stroke-width:1.94051;stroke-linecap:round;stroke-linejoin:round"
     d="M 187.90427,339.56305 C 114.31891,239.88043 83.054154,150.32048 91.02483,121.53353 c 7.970689,-28.78694 34.2694,-29.937375 44.09095,-24.255305 9.82156,5.682105 56.52685,57.584385 72.47526,107.807435 15.94839,50.22303 16.9798,117.28226 16.9798,117.28226 z"
     id="path453-3-6" />
  <path
     style="fill:#000000;fill-opacity:0.10541311;stroke-width:1.5;stroke-linecap:round;stroke-linejoin:round"
     d="M 141.79999,346.60001 C 128.5,320 136.90002,263.29999 162.10001,249.29999 c 25.19998,-14 81.89999,-35.69995 121.1,-19.59998 39.20001,16.09998 70.00006,24.5 81.20001,52.5 11.19996,28 -11.90002,46.19998 -11.90002,46.19998 z"
     id="path4883" />
  <path
     style="fill:#fba101;stroke:none"
     d="m 254.75878,5.8213411 c -24.247,3.18359 -49.081,0.89581 -73,7.0540099 -46.15199,11.88211 -86.040193,52.92931 -111.644293,91.521609 -6.6409,10.01 -11.1317,21.38 -13.9815,33 -1.5733,6.416 -0.8402,14.344 -4.5216,20 -13.5767,20.858 -31.1129,40.959 -40.97992,64 -16.0770226,37.542 -12.1532096,91.435 9.19212,126 17.0901,27.674 41.9707,47.357 68.9352,64.692 43.665003,28.071 87.818993,47.152 139.999993,52.138 23.585,2.254 48.291,0.17 72,0.17 23.536,0 48.657,2.581 72,-0.286 35.111,-4.312 76.177,-19.261 104,-41.38 16.381,-13.023 29.253,-29.926 43.17,-45.334 30.015,-33.231 53.292,-69.102 57.66,-115 6.713,-70.535 -24.302,-140.813 -71.92,-191.999999 -16.12,-17.3288 -36.737,-26.4319 -57.91,-35.8611 -47.374,-21.09795 -99.449,-29.1388999 -151,-29.1388999 -13.761,0 -28.352,-1.367645 -42,0.42438 z"
     id="path14"
     inkscape:label="Head"
     transform="matrix(0.37112932,0,0,0.37112932,141.58381,234.38003)" />
  <path
     style="fill:#fef9c7;stroke:none"
     d="m 195,66.5178 c -16.159,3.4527 -36.436,16.1623 -39.522,33.4784 -1.823,10.2338 0.991,19.1458 2.409,29.0038 0.899,6.255 -3.563,11.362 -1.27,18 6.156,17.815 30.382,27.405 47.383,23.789 26.892,-5.718 42.549,-24.314 52.308,-48.789 4.573,-11.469 7.791,-27.1411 0.054,-38 C 247.185,71.1205 235.006,69.8699 221,66.8842 213.284,65.2396 202.75,64.8618 195,66.5178 m 192,4.9074 c -13.641,1.8568 -28.334,4.4826 -37.725,15.6142 -19.03,22.5556 -9.563,67.4016 11.818,84.9176 14.052,11.511 42.083,8.371 58.907,5.747 C 452.487,172.636 460.011,150.25 460,121 459.996,110.833 459.052,96.3155 452.606,88 437.305,68.2595 409.838,68.3165 387,71.4252"
     id="path16"
     sodipodi:nodetypes="cccccccccccccccc"
     inkscape:label="Whites"
     transform="matrix(0.37112932,0,0,0.37112932,141.58381,234.38003)" />
  <path
     style="fill:#010101;stroke:none"
     d="m 205,95.4252 c -7.953,1.0187 -17.357,2.0406 -21.991,9.5898 -9.512,15.497 0.993,40.759 20.991,38.785 8.392,-0.828 19.724,-6.733 22.991,-14.8 C 233.624,112.622 224.018,92.9892 205,95.4252 Z"
     id="path22"
     inkscape:label="Eye"
     transform="matrix(0.37112932,0,0,0.37112932,141.58381,234.38003)" />
  <path
     style="fill:#010101;stroke:none"
     d="m 400,102.465 c -32.762,5.894 -22.842,55.444 10,50.053 25.744,-4.226 19.427,-55.3479 -10,-50.053 z"
     id="path62"
     inkscape:label="Eye"
     transform="matrix(0.37112932,0,0,0.37112932,141.58381,234.38003)" />
  <path
     style="fill:#010101;stroke:none"
     d="m 144,318 c 0.51913,10.82219 -1.35937,14.76083 0,23 -2.653,12.365 -0.374,23.915 -2.325,36 -0.847,5.25 -4.246,15.682 -0.597,20.54 6.328,8.424 28.793,4.46 37.922,4.46 36.592,0 73.416,1.976 110,2 l 1,-53 -1,-18 v -1 c -26.64992,-0.98921 4.43361,-1.73314 -33,-4.91 -31.857,-2.182 -64.909,-0.354 -96,-9.165 -13.66488,-2.77663 -15.50478,-2.53299 -16,0.075 z"
     id="path300"
     sodipodi:nodetypes="ccccsccccccc"
     inkscape:label="Mouth"
     transform="matrix(0.37112932,0,0,0.37112932,162.18411,221.09887)" />
  <path
     style="fill:#fef9c7;stroke:none"
     d="m 148,321 c 0,10.928 -2.438,21.262 -2.96,32 -0.363,7.469 1.975,14.753 1.695,22 -0.221,5.726 -6.364,15.875 -1.132,20.95 6.96,6.749 30.078,2.05 39.397,2.05 8.692,0 19.629,4.127 27,-1 -5.365,-14.001 -0.818,-34.89 -1.004,-50 -0.094,-7.635 -3.141,-12.389 2.004,-19 l -33,-2.054 z"
     id="path476"
     sodipodi:nodetypes="ccccscsccc"
     inkscape:label="Tooth"
     transform="matrix(0.37112932,0,0,0.37112932,162.18411,221.09887)" />
  <path
     style="fill:#fef9c7;stroke:none"
     d="m 215,331 0.004,48 -1.004,22 72,-1 c -1.956,-8.238 1.046,-15.838 1.823,-24 0.643,-6.758 -0.823,-14.135 -0.823,-21 0,-12.471 0.878,-20.693 -14,-21 -0.67,-4.484 -9.457,-3.102 -13,-2.588 C 245.063,333.579 229.939,331 215,331 Z"
     id="path552"
     sodipodi:nodetypes="cccccscsc"
     inkscape:label="Tooth"
     transform="matrix(0.37112932,0,0,0.37112932,162.18411,221.09887)" />
  <path
     style="fill:#ffb600;fill-opacity:1;stroke-width:4.57709;stroke-linecap:round;stroke-linejoin:round"
     d="m 291.16356,250.56993 c -61.13053,20.05779 -109.88763,20.33917 -109.88763,20.33917 0,0 34.46596,14.56128 44.49224,41.43886 11.37306,30.48788 61.13046,45.73174 61.13046,45.73174 0,0 46.48517,-12.19776 54.02236,-43.32484 5.81927,-24.03242 47.91431,-40.63647 47.91431,-40.63647 0,0 -62.13085,-0.28142 -97.67174,-23.54846 z"
     id="path10739"
     sodipodi:nodetypes="ccscscc"
     transform="matrix(0.37112932,0,0,0.37112932,141.58381,234.38003)" />
  <path
     style="fill:#fbcc01;fill-opacity:1;stroke-width:4.08938;stroke-linecap:round;stroke-linejoin:round"
     d="m 291.16356,250.56993 c -61.13053,16.01104 -110.88791,20.49413 -110.88791,20.49413 0,0 35.46624,7.365 45.49252,28.81992 11.37306,24.33681 61.13046,36.50516 61.13046,36.50516 0,0 46.48517,-9.73681 54.02236,-34.58387 5.81927,-19.18377 46.91403,-28.17941 46.91403,-28.17941 0,0 -61.13057,-4.48311 -96.67146,-23.05593 z"
     id="path10741"
     sodipodi:nodetypes="ccscscc"
     transform="matrix(0.37112932,0,0,0.37112932,141.58381,234.38003)" />
  <path
     style="fill:#ff1c00;fill-opacity:1;stroke-width:4.04172;stroke-linecap:round;stroke-linejoin:round"
     d="m 291.59984,252.4561 c 52.81176,18.86135 92.42073,16.0322 93.36371,21.69058 0.94302,5.65837 -24.51975,56.58399 -15.08908,68.84387 9.43068,12.2599 26.40584,22.6337 32.06427,11.31686 5.65843,-11.31686 10.37369,-78.27463 2.82918,-82.98996 -7.54452,-4.71534 0.94312,-17.91826 -113.16808,-18.86135 z"
     id="path11523"
     transform="matrix(0.37112932,0,0,0.37112932,141.58381,234.38003)" />
  <path
     style="fill:#000000;fill-opacity:1;stroke-width:4.04172;stroke-linecap:round;stroke-linejoin:round"
     d="m 281.16342,220.70164 c -46.01261,12.67014 -62.68386,40.67784 -84.68989,14.00385 -22.00605,-26.67397 -17.3381,-32.00876 -15.33753,-32.00876 2.00054,0 8.00217,4.66794 8.00217,4.66794 0,0 -7.33534,1.33366 4.00111,14.0038 11.33643,12.67017 17.33811,22.00605 25.34028,18.67179 8.00219,-3.33423 45.50637,-24.30549 57.34903,-26.67397 3.33431,-0.66685 5.33483,7.33535 5.33483,7.33535 z"
     id="path12175"
     sodipodi:nodetypes="csscsssc"
     transform="matrix(0.37112932,0,0,0.37112932,141.58381,234.38003)" />
  <path
     style="fill:#000000;fill-opacity:1;stroke-width:4.04172;stroke-linecap:round;stroke-linejoin:round"
     d="m 286.15459,223.61338 c 46.01261,12.67014 62.68386,40.67784 84.68989,14.00385 22.00605,-26.67397 17.3381,-32.00876 15.33753,-32.00876 -2.00054,0 -8.00217,4.66794 -8.00217,4.66794 0,0 7.33534,1.33366 -4.00111,14.0038 -11.33643,12.67017 -17.33811,22.00605 -25.34028,18.67179 -8.00219,-3.33423 -45.50637,-24.30549 -57.34903,-26.67397 -3.33431,-0.66685 -5.33483,7.33535 -5.33483,7.33535 z"
     id="path12175-5"
     sodipodi:nodetypes="csscsssc"
     transform="matrix(0.37112932,0,0,0.37112932,141.58381,234.38003)" />
  <path
     style="fill:#fba101;fill-opacity:1;stroke-width:1.5;stroke-linecap:round;stroke-linejoin:round"
     d="m 224.40901,403.84972 c 0,0 1.25627,6.39211 1.00879,12.33181 -0.24748,5.9397 -1.23743,13.8593 -1.48492,18.31407 -0.24749,4.45478 -2.22739,7.17713 -2.22739,7.17713 0,0 -9.15703,2.72236 -12.12688,6.92965 -2.96985,4.2073 -4.70227,8.66206 -4.70227,8.66206 h 2.2274 c 0,0 5.4447,-4.45476 6.43466,-6.18718 0.98996,-1.73242 8.66206,-5.9397 8.66206,-5.9397 0,0 -3.71231,6.68217 -4.20728,8.66206 -0.49498,1.97989 0.49497,5.6922 0.49497,5.6922 l 1.73242,0.49499 c 0,0 3.21733,-4.45479 3.46482,-6.43468 0.24749,-1.97989 1.73241,-7.67211 1.73241,-7.67211 0,0 2.72236,7.67211 2.72236,8.66205 0,0.98995 1.9799,7.17713 1.9799,7.17713 l 1.73241,-0.24747 c 0,0 0.98994,-4.70227 0.24748,-9.40453 -0.74245,-4.70226 -4.70225,-11.38441 -4.70225,-11.38441 0,0 0.49497,-11.87939 2.47487,-14.10678 1.9799,-2.22739 -0.74246,-9.15704 -0.74246,-14.10679 0,-4.94975 0.24749,-6.68216 0.24749,-6.68216"
     id="path9020" />
  <path
     style="fill:#fba101;fill-opacity:1;stroke-width:1.5;stroke-linecap:round;stroke-linejoin:round"
     d="m 263.68103,402.60526 c 0,0 -1.25627,6.39211 -1.00879,12.33181 0.24748,5.9397 1.23743,13.8593 1.48492,18.31407 0.24749,4.45478 2.22739,7.17713 2.22739,7.17713 0,0 9.15703,2.72236 12.12688,6.92965 2.96985,4.2073 4.70227,8.66206 4.70227,8.66206 h -2.2274 c 0,0 -5.4447,-4.45476 -6.43466,-6.18718 -0.98996,-1.73242 -8.66206,-5.9397 -8.66206,-5.9397 0,0 3.71231,6.68217 4.20728,8.66206 0.49498,1.97989 -0.49497,5.6922 -0.49497,5.6922 l -1.73242,0.49499 c 0,0 -3.21733,-4.45479 -3.46482,-6.43468 -0.24749,-1.97989 -1.73241,-7.67211 -1.73241,-7.67211 0,0 -2.72236,7.67211 -2.72236,8.66205 0,0.98995 -1.9799,7.17713 -1.9799,7.17713 l -1.73241,-0.24747 c 0,0 -0.98994,-4.70227 -0.24748,-9.40453 0.74245,-4.70226 4.70225,-11.38441 4.70225,-11.38441 0,0 -0.49497,-11.87939 -2.47487,-14.10678 -1.9799,-2.22739 0.74246,-9.15704 0.74246,-14.10679 0,-4.94975 -0.24749,-6.68216 -0.24749,-6.68216"
     id="path9020-3" />
  <path
     style="fill:#000000;fill-opacity:0.133333;stroke-width:1.5;stroke-linecap:round;stroke-linejoin:round"
     d="m 154.85639,373.28167 c 0,0 36.62814,27.71859 50.9824,31.67839 14.35426,3.95981 66.82161,4.94977 73.75125,3.95981 6.92965,-0.98997 33.16333,-9.40452 41.57787,-18.80905 8.41455,-9.40453 14.35427,-15.83919 14.35427,-15.83919 0,0 -80.68089,45.53765 -180.66579,-0.98996 z"
     id="path12209" />
  <path
     style="fill:#2c2c2c;fill-opacity:1;stroke-width:1.5;stroke-linecap:round;stroke-linejoin:round"
     d="m 178.61518,250.59864 c 0,0 59.89197,6.43468 75.73114,5.44473 15.83916,-0.98995 72.26632,-3.9598 72.26632,-3.9598 v -16.82914 c 0,0 -58.40707,6.43468 -74.74122,3.46482 -16.33415,-2.96985 -73.25624,-6.92966 -73.25624,-6.92966 z"
     id="path13292" />
  <path
     style="fill:#3d3d3d;fill-opacity:1;stroke-width:1.5;stroke-linecap:round;stroke-linejoin:round"
     d="m 178.61518,231.29463 c 0,0 46.52764,-7.42464 66.82159,-6.92966 20.29395,0.49499 81.17587,10.88946 81.17587,10.88946 0,0 -72.26632,15.34423 -147.99746,-3.9598 z"
     id="path14752" />
  <path
     style="fill:#424242;fill-opacity:1;stroke-width:1.5;stroke-linecap:round;stroke-linejoin:round"
     d="m 209.79857,231.78961 0.49498,-88.60049 c 0,0 17.32407,12.86933 46.03263,8.41456 28.70856,-4.45476 38.60806,-9.40451 38.60806,-9.40451 l -3.95982,91.07535 c 0,0 -40.58793,5.93971 -81.17585,-1.48491 z"
     id="path15456" />
  <path
     style="fill:#4b4b4b;fill-opacity:1;stroke-width:1.5;stroke-linecap:round;stroke-linejoin:round"
     d="m 211.77848,144.67407 c 0,0 20.29397,-7.42461 37.61809,-6.43467 17.32411,0.98995 46.03263,4.45476 46.03263,4.45476 0,0 -50.48742,21.7789 -83.65072,1.97991 z"
     id="path16430" />
  <path
     style="fill:#000000;fill-opacity:1;stroke-width:1.5;stroke-linecap:round;stroke-linejoin:round"
     d="m 209.79857,227.82981 c 0,0 23.26381,2.96986 37.61809,2.47488 14.35428,-0.49499 44.05276,-4.45479 44.05276,-4.45479 v -10.88944 c 0,0 -36.62812,5.44473 -48.50753,4.94975 -11.8794,-0.49498 -33.65828,-2.96986 -33.65828,-2.96986 z"
     id="path16648" />
  <path
     style="fill:#ffea00;fill-opacity:1;stroke-width:1.5;stroke-linecap:round;stroke-linejoin:round"
     d="m 238.01215,219.91021 -0.49499,-6.43468 21.19553,-1.0253 2.35113,22.39761 -21.77888,0.37123 -0.37124,-4.94975 4.33103,0.24749 0.24749,1.11369 11.63191,-0.74246 -0.74246,-12.25063 h -12.00314 l 0.12374,1.36119 z"
     id="path16866" />
  <path
     style="fill:#000000;fill-opacity:0.07350441;stroke-width:1.5;stroke-linecap:round;stroke-linejoin:round"
     d="m 52.962294,207.81868 c 22.768847,33.1633 83.155766,94.0452 83.155766,94.0452 l 3.46481,-10.88944 c 0,0 -87.610532,-80.68089 -86.620576,-83.15576 z"
     id="path18812" />
  <path
     style="fill:#000000;fill-opacity:0.0735044;stroke-width:1.5;stroke-linecap:round;stroke-linejoin:round"
     d="m 111.36447,139.94933 c 26.53807,30.23169 70.68178,103.74713 70.68178,103.74713 l -11.40727,0.67766 c 0,0 -56.63211,-104.77507 -59.27451,-104.42479 z"
     id="path18812-6" />
  <path
     style="fill:#000000;fill-opacity:0.0735044;stroke-width:1.5;stroke-linecap:round;stroke-linejoin:round"
     d="m 428.39067,195.63122 c -21.12018,34.23685 -78.45823,97.9984 -78.45823,97.9984 l -3.99308,-10.70702 c 0,0 83.56108,-84.86787 82.45131,-87.29138 z"
     id="path18812-6-2" />
  <path
     style="fill:#000000;fill-opacity:0.0735044;stroke-width:1.5;stroke-linecap:round;stroke-linejoin:round"
     d="m 341.62653,119.78429 c -4.8027,39.93943 -30.0895,121.877 -30.0895,121.877 l -8.11772,-8.04286 c 0,0 40.23158,-112.10009 38.20722,-113.83414 z"
     id="path18812-6-9" />
  <path
     style="fill:#000000;fill-opacity:0.0735044;stroke-width:1.5;stroke-linecap:round;stroke-linejoin:round"
     d="m 231.1532,139.51217 6.92964,-48.012557 4.94975,47.022597 z"
     id="path20124" />
  <path
     style="fill:#ffeeee;fill-opacity:0.82735014;stroke-width:1.5;stroke-linecap:round;stroke-linejoin:round"
     d="m 230.16326,74.104793 c 0,0 -6.92968,1.484928 -10.88946,6.929649 -3.95978,5.44472 -12.37437,27.223608 -12.37437,27.223608 0,0 16.82917,-31.678383 23.26383,-34.153257 z"
     id="path20126" />
  <path
     style="fill:#ffeeee;fill-opacity:0.82735;stroke-width:1.5;stroke-linecap:round;stroke-linejoin:round"
     d="m 98.499966,110.73293 c 3.959804,-5.44473 11.879384,-13.364339 23.263804,-12.869356 11.38443,0.494984 15.34423,4.949746 15.34423,4.949746 0,0 -20.29397,-7.424598 -38.608034,7.91961 z"
     id="path21478" />
  <path
     style="fill:#ffeeee;fill-opacity:0.82735;stroke-width:1.5;stroke-linecap:round;stroke-linejoin:round"
     d="m 315.79387,101.82338 c 16.82918,-11.8794 17.81914,-13.364317 26.23369,-12.869345 8.41454,0.494973 16.33415,5.44472 16.33415,5.44472 0,0 -20.78896,-3.464819 -42.56784,7.424625 z"
     id="path21480" />
  <path
     style="fill:#ffeeee;fill-opacity:0.82735;stroke-width:1.5;stroke-linecap:round;stroke-linejoin:round"
     d="m 60.881898,183.49421 c 7.424621,2.96986 32.668321,19.79899 32.668321,19.79899 0,0 -18.31404,0.49498 -32.668321,-19.79899 z"
     id="path21482" />
  <path
     style="fill:#ffeeee;fill-opacity:0.82735;stroke-width:1.5;stroke-linecap:round;stroke-linejoin:round"
     d="m 399.44464,193.3937 c 14.84924,-9.89949 21.77892,-11.87938 27.22361,-9.89949 5.44469,1.97989 9.89949,5.93969 9.89949,5.93969 0,0 -19.304,-6.92964 -37.1231,3.9598 z"
     id="path21484" />
  <path
     style="fill:#fba101;fill-opacity:1;stroke-width:1.5;stroke-linecap:round;stroke-linejoin:round"
     d="m 331.84521,366.06919 c 0,0 -1.48491,2.47487 9.8995,18.31406 11.3844,15.83919 27.22356,25.2437 28.70851,15.83919 1.48495,-9.40452 -2.96981,-16.82914 -2.96981,-16.82914 0,0 5.93967,15.34423 10.88942,12.86936 4.94975,-2.47488 3.46484,-23.26381 0.49498,-26.23367 -2.96985,-2.96986 5.93967,15.34423 9.40451,11.38442 3.46484,-3.9598 3.46489,-14.35426 -0.98992,-21.28392 -4.45481,-6.92965 -14.3543,-15.83918 -14.3543,-15.83918 0,0 11.3844,9.40451 12.86935,5.93969 1.48495,-3.46482 -5.93971,-23.75879 -32.66834,-30.19347 -26.72863,-6.43467 -21.2839,46.03266 -21.2839,46.03266 z"
     id="path21528" />
  <path
     style="fill:#fba101;fill-opacity:1;stroke-width:1.5;stroke-linecap:round;stroke-linejoin:round"
     d="m 161.24553,370.19583 c 0,0 1.48491,2.47487 -9.8995,18.31406 -11.3844,15.83919 -27.22356,25.2437 -28.70851,15.83919 -1.48495,-9.40452 2.96981,-16.82914 2.96981,-16.82914 0,0 -5.93967,15.34423 -10.88942,12.86936 -4.94975,-2.47488 -3.46484,-23.26381 -0.49498,-26.23367 2.96985,-2.96986 -5.93967,15.34423 -9.40451,11.38442 -3.46484,-3.9598 -3.46489,-14.35426 0.98992,-21.28392 4.45481,-6.92965 14.3543,-15.83918 14.3543,-15.83918 0,0 -11.3844,9.40451 -12.86935,5.93969 -1.48495,-3.46482 5.93971,-23.75879 32.66834,-30.19347 26.72863,-6.43467 21.2839,46.03266 21.2839,46.03266 z"
     id="path21528-1" />
</svg>
